M48
; DRILL file {KiCad (5.1.6-0-10_14)} date Sunday, December 04, 2022 at 04:17:36 PM
; FORMAT={-:-/ absolute / metric / decimal}
; #@! TF.CreationDate,2022-12-04T16:17:36+09:00
; #@! TF.GenerationSoftware,Kicad,Pcbnew,(5.1.6-0-10_14)
; #@! TF.FileFunction,NonPlated,1,2,NPTH
FMAT,2
METRIC
T1C1.700
T2C1.900
T3C3.000
T4C4.000
%
G90
G05
T1
X71.12Y-23.812
X81.28Y-23.812
X13.97Y-42.862
X24.13Y-42.862
X92.109Y-72.931
X100.908Y-78.011
X47.307Y-61.912
X57.467Y-61.912
X52.07Y-42.862
X62.23Y-42.862
X52.07Y-4.762
X62.23Y-4.762
X13.97Y-4.762
X24.13Y-4.762
X-5.08Y-47.625
X5.08Y-47.625
X71.12Y-4.762
X81.28Y-4.762
X33.02Y-38.1
X43.18Y-38.1
X33.02Y0.0
X43.18Y0.0
X13.97Y-23.812
X24.13Y-23.812
X-5.08Y-28.575
X5.08Y-28.575
X71.12Y-42.862
X81.28Y-42.862
X33.02Y-19.05
X43.18Y-19.05
X-5.08Y-9.525
X5.08Y-9.525
X70.335Y-64.638
X80.149Y-67.268
X52.07Y-23.812
X62.23Y-23.812
T2
X51.65Y-4.762
X62.65Y-4.762
X13.55Y-4.762
X24.55Y-4.762
X-5.5Y-47.625
X5.5Y-47.625
X70.7Y-4.762
X81.7Y-4.762
X32.6Y-38.1
X43.6Y-38.1
X32.6Y0.0
X43.6Y0.0
X13.55Y-23.812
X24.55Y-23.812
X-5.5Y-28.575
X5.5Y-28.575
X70.7Y-42.862
X81.7Y-42.862
X32.6Y-19.05
X43.6Y-19.05
X-5.5Y-9.525
X5.5Y-9.525
X69.929Y-64.529
X80.555Y-67.376
X51.65Y-23.812
X62.65Y-23.812
X70.7Y-23.812
X81.7Y-23.812
X13.55Y-42.862
X24.55Y-42.862
X91.745Y-72.721
X101.271Y-78.221
X46.887Y-61.912
X57.887Y-61.912
X51.65Y-42.862
X62.65Y-42.862
T3
X33.1Y-41.8
X34.29Y-35.56
X35.56Y-33.02
X38.1Y-44.0
X40.64Y-33.02
X41.91Y-35.56
X43.1Y-41.8
X33.1Y-3.7
X34.29Y2.54
X35.56Y5.08
X38.1Y-5.9
X40.64Y5.08
X41.91Y2.54
X43.1Y-3.7
X14.05Y-27.512
X15.24Y-21.272
X16.51Y-18.732
X19.05Y-29.712
X21.59Y-18.732
X22.86Y-21.272
X24.05Y-27.512
X-5.0Y-32.275
X-3.81Y-26.035
X-2.54Y-23.495
X0.0Y-34.475
X2.54Y-23.495
X3.81Y-26.035
X5.0Y-32.275
X71.2Y-46.562
X72.39Y-40.322
X73.66Y-37.782
X76.2Y-48.762
X78.74Y-37.782
X80.01Y-40.322
X81.2Y-46.562
X33.1Y-22.75
X34.29Y-16.51
X35.56Y-13.97
X38.1Y-24.95
X40.64Y-13.97
X41.91Y-16.51
X43.1Y-22.75
X-5.0Y-13.225
X-3.81Y-6.985
X-2.54Y-4.445
X0.0Y-15.425
X2.54Y-4.445
X3.81Y-6.985
X5.0Y-13.225
X69.455Y-68.233
X72.219Y-62.513
X73.715Y-71.652
X74.103Y-60.389
X79.01Y-61.703
X79.114Y-70.821
X79.58Y-64.486
X52.15Y-27.512
X53.34Y-21.272
X54.61Y-18.732
X57.15Y-29.712
X59.69Y-18.732
X60.96Y-21.272
X62.15Y-27.512
X71.2Y-27.512
X72.39Y-21.272
X73.66Y-18.732
X76.2Y-29.712
X78.74Y-18.732
X80.01Y-21.272
X81.2Y-27.512
X14.05Y-46.562
X15.24Y-40.322
X16.51Y-37.782
X19.05Y-48.762
X21.59Y-37.782
X22.86Y-40.322
X24.05Y-46.562
X90.328Y-76.175
X93.558Y-80.58
X94.479Y-71.366
X96.848Y-69.801
X98.988Y-81.175
X101.078Y-75.176
X101.248Y-72.341
X47.387Y-65.612
X48.578Y-59.372
X49.847Y-56.832
X52.387Y-67.812
X54.927Y-56.832
X56.197Y-59.372
X57.387Y-65.612
X52.15Y-46.562
X53.34Y-40.322
X54.61Y-37.782
X57.15Y-48.762
X59.69Y-37.782
X60.96Y-40.322
X62.15Y-46.562
X52.15Y-8.462
X53.34Y-2.222
X54.61Y0.318
X57.15Y-10.662
X59.69Y0.318
X60.96Y-2.222
X62.15Y-8.462
X14.05Y-8.462
X15.24Y-2.222
X16.51Y0.318
X19.05Y-10.662
X21.59Y0.318
X22.86Y-2.222
X24.05Y-8.462
X-5.0Y-51.325
X-3.81Y-45.085
X-2.54Y-42.545
X0.0Y-53.525
X2.54Y-42.545
X3.81Y-45.085
X5.0Y-51.325
X71.2Y-8.462
X72.39Y-2.222
X73.66Y0.318
X76.2Y-10.662
X78.74Y0.318
X80.01Y-2.222
X81.2Y-8.462
T4
X57.15Y-4.762
X19.05Y-4.762
X76.2Y-4.762
X38.1Y0.0
X19.05Y-23.812
X0.0Y-28.575
X76.2Y-42.862
X38.1Y-19.05
X0.0Y-9.525
X75.242Y-65.953
X57.15Y-23.812
X76.2Y-23.812
X19.05Y-42.862
X96.508Y-75.471
X52.387Y-61.912
X57.15Y-42.862
X0.0Y-47.625
X38.1Y-38.1
T0
M30
