M48
; DRILL file {KiCad (5.1.6-0-10_14)} date Sunday, December 04, 2022 at 04:17:36 PM
; FORMAT={-:-/ absolute / metric / decimal}
; #@! TF.CreationDate,2022-12-04T16:17:36+09:00
; #@! TF.GenerationSoftware,Kicad,Pcbnew,(5.1.6-0-10_14)
; #@! TF.FileFunction,Plated,1,2,PTH
FMAT,2
METRIC
T1C0.400
T2C0.813
%
G90
G05
T1
X-6.9Y-10.83
X-6.9Y-29.83
X-6.9Y-48.92
X2.8Y-12.724
X2.8Y-31.774
X2.8Y-50.824
X12.15Y-6.16
X12.15Y-25.26
X12.15Y-44.03
X21.85Y-7.961
X21.85Y-46.061
X21.961Y-26.901
X31.2Y-1.54
X31.2Y-20.61
X31.2Y-39.53
X40.9Y-3.199
X40.9Y-22.249
X40.9Y-41.37
X45.487Y-63.082
X50.25Y-6.14
X50.25Y-25.02
X50.25Y-44.16
X55.188Y-65.111
X59.95Y-8.12
X59.95Y-27.34
X60.021Y-45.991
X67.009Y-63.939
X69.3Y-6.14
X69.3Y-25.35
X69.3Y-44.33
X77.072Y-70.162
X79.0Y-7.961
X79.0Y-27.011
X79.274Y-45.724
X89.537Y-72.087
X96.46Y-36.69
X96.48Y-30.49
X97.17Y-80.125
X98.23Y-29.69
X98.23Y-31.215
X98.74Y-36.55
X100.75Y-29.73
X100.75Y-31.31
X101.08Y-37.54
X103.36Y-30.53
X103.39Y-36.69
T2
X-3.81Y-18.525
X3.81Y-18.525
X-3.81Y-37.575
X3.81Y-37.575
X15.24Y-32.812
X22.86Y-32.812
X15.24Y-13.762
X22.86Y-13.762
X34.29Y-9.0
X41.91Y-9.0
X34.29Y-28.05
X41.91Y-28.05
X53.34Y-32.812
X60.96Y-32.812
X72.39Y-32.812
X80.01Y-32.812
X-3.81Y-56.625
X3.81Y-56.625
X93.56Y-44.384
X93.56Y-46.924
X93.56Y-49.464
X93.56Y-52.004
X106.006Y-44.384
X106.006Y-46.924
X106.006Y-49.464
X106.006Y-52.004
X15.24Y-51.862
X22.86Y-51.862
X34.29Y-47.1
X41.91Y-47.1
X53.34Y-51.862
X60.96Y-51.862
X72.39Y-51.862
X80.01Y-51.862
X48.578Y-70.912
X56.197Y-70.912
X89.27Y-34.284
X89.27Y-41.396
X69.233Y-73.66
X76.593Y-75.632
X89.19Y-43.814
X89.19Y-50.926
X88.709Y-81.36
X95.308Y-85.17
X96.49Y-25.84
X99.03Y-25.84
X101.57Y-25.84
X104.11Y-25.84
X92.681Y1.958
X92.681Y-0.582
X92.681Y-3.122
X92.681Y-5.662
X92.681Y-8.202
X92.681Y-10.742
X92.681Y-13.282
X92.681Y-15.822
X92.681Y-18.362
X92.681Y-20.902
X92.681Y-23.442
X92.681Y-25.982
X107.901Y1.958
X107.901Y-0.582
X107.901Y-3.122
X107.901Y-5.662
X107.901Y-8.202
X107.901Y-10.742
X107.901Y-13.282
X107.901Y-15.822
X107.901Y-18.362
X107.901Y-20.902
X107.901Y-23.442
X107.901Y-25.982
X53.34Y-13.762
X60.96Y-13.762
X72.39Y-13.762
X80.01Y-13.762
T0
M30
