999
"DXF R12 Output" (www.mydxf.blogspot.com)
 0 
SECTION
 2 
HEADER
 9 
$ACADVER
 1 
AC1009
 9 
$EXTMIN
 10 
 0 
 20 
 0 
 9 
$EXTMAX
 10 
 8.5 
 20 
 11 
 0 
ENDSEC
 0 
SECTION
 2 
ENTITIES
0
LINE
8
Layer 1
10
12392.100000
20
-7853.960000
11
12392.100000
21
771.313000
0
LINE
8
Layer 1
10
11170.900000
20
-9970.620000
11
12392.070000
21
-7853.950000
0
LINE
8
Layer 1
10
4598.810000
20
-8016.230000
11
11170.910000
21
-9970.620000
0
LINE
8
Layer 1
10
4598.810000
20
-7096.190000
11
4598.810000
21
-8016.230000
0
LINE
8
Layer 1
10
-1222.020000
20
-6428.450000
11
4598.810000
21
-7096.187000
0
LINE
8
Layer 1
10
-1222.020000
20
248.920000
11
-1222.020000
21
-6428.450000
0
LINE
8
Layer 1
10
894.362000
20
777.804000
11
-1222.020000
21
248.920000
0
LINE
8
Layer 1
10
3011.030000
20
1306.690000
11
894.362000
21
777.804000
0
LINE
8
Layer 1
10
5455.350000
20
1306.690000
11
3011.030000
21
1306.690000
0
LINE
8
Layer 1
10
12392.100000
20
771.313000
11
5455.350000
21
1306.690000
0
LINE
8
Layer 1
10
81.275000
20
111.645000
11
85.226200
21
111.645000
0
LINE
8
Layer 1
10
85.226200
20
111.645000
11
85.226200
21
115.598000
0
LINE
8
Layer 1
10
81.275000
20
106.271000
11
85.226200
21
106.271000
0
LINE
8
Layer 1
10
85.226200
20
106.271000
11
85.226200
21
110.225000
0
LINE
8
Layer 1
10
85.226200
20
110.225000
11
81.275000
21
110.225000
0
LINE
8
Layer 1
10
81.275000
20
110.225000
11
81.275000
21
106.271000
0
LINE
8
Layer 1
10
85.226200
20
115.598000
11
81.275000
21
115.598000
0
LINE
8
Layer 1
10
81.275000
20
115.598000
11
81.275000
21
111.645000
0
LINE
8
Layer 1
10
85.226200
20
104.848000
11
81.275000
21
104.848000
0
LINE
8
Layer 1
10
81.275000
20
100.895000
11
85.226200
21
100.895000
0
LINE
8
Layer 1
10
85.226200
20
100.895000
11
85.226200
21
104.848000
0
LINE
8
Layer 1
10
81.275000
20
104.848000
11
81.275000
21
100.895000
0
LINE
8
Layer 1
10
92.027600
20
111.645000
11
95.978900
21
111.645000
0
LINE
8
Layer 1
10
95.978900
20
111.645000
11
95.978900
21
115.598000
0
LINE
8
Layer 1
10
92.027600
20
106.271000
11
95.978900
21
106.271000
0
LINE
8
Layer 1
10
95.978900
20
106.271000
11
95.978900
21
110.225000
0
LINE
8
Layer 1
10
95.978900
20
110.225000
11
92.027600
21
110.225000
0
LINE
8
Layer 1
10
92.027600
20
110.225000
11
92.027600
21
106.271000
0
LINE
8
Layer 1
10
95.978900
20
115.598000
11
92.027600
21
115.598000
0
LINE
8
Layer 1
10
92.027600
20
115.598000
11
92.027600
21
111.645000
0
LINE
8
Layer 1
10
92.027600
20
100.895000
11
95.978900
21
100.895000
0
LINE
8
Layer 1
10
95.978900
20
100.895000
11
95.978900
21
104.848000
0
LINE
8
Layer 1
10
92.027600
20
104.848000
11
92.027600
21
100.895000
0
LINE
8
Layer 1
10
95.978900
20
104.848000
11
92.027600
21
104.848000
0
LINE
8
Layer 1
10
97.404000
20
111.645000
11
101.355000
21
111.645000
0
LINE
8
Layer 1
10
86.651300
20
112.988000
11
90.602500
21
112.988000
0
LINE
8
Layer 1
10
90.602500
20
112.988000
11
90.602500
21
116.941000
0
LINE
8
Layer 1
10
86.651300
20
107.615000
11
90.602500
21
107.615000
0
LINE
8
Layer 1
10
90.602500
20
107.615000
11
90.602500
21
111.568000
0
LINE
8
Layer 1
10
90.602500
20
111.568000
11
86.651300
21
111.568000
0
LINE
8
Layer 1
10
86.651300
20
111.568000
11
86.651300
21
107.615000
0
LINE
8
Layer 1
10
90.602500
20
116.941000
11
86.651300
21
116.941000
0
LINE
8
Layer 1
10
86.651300
20
116.941000
11
86.651300
21
112.988000
0
LINE
8
Layer 1
10
90.602500
20
106.192000
11
86.651300
21
106.192000
0
LINE
8
Layer 1
10
86.651300
20
102.238000
11
90.602500
21
102.238000
0
LINE
8
Layer 1
10
90.602500
20
102.238000
11
90.602500
21
106.192000
0
LINE
8
Layer 1
10
86.651300
20
106.192000
11
86.651300
21
102.238000
0
LINE
8
Layer 1
10
101.355000
20
111.645000
11
101.355000
21
115.598000
0
LINE
8
Layer 1
10
97.404000
20
106.271000
11
101.355000
21
106.271000
0
LINE
8
Layer 1
10
101.355000
20
106.271000
11
101.355000
21
110.225000
0
LINE
8
Layer 1
10
101.355000
20
110.225000
11
97.404000
21
110.225000
0
LINE
8
Layer 1
10
97.404000
20
110.225000
11
97.404000
21
106.271000
0
LINE
8
Layer 1
10
75.898600
20
110.301000
11
79.849900
21
110.301000
0
LINE
8
Layer 1
10
79.849900
20
110.301000
11
79.849900
21
114.255000
0
LINE
8
Layer 1
10
75.898600
20
104.927000
11
79.849900
21
104.927000
0
LINE
8
Layer 1
10
79.849900
20
104.927000
11
79.849900
21
108.881000
0
LINE
8
Layer 1
10
79.849900
20
108.881000
11
75.898600
21
108.881000
0
LINE
8
Layer 1
10
75.898600
20
108.881000
11
75.898600
21
104.927000
0
LINE
8
Layer 1
10
79.849900
20
114.255000
11
75.898600
21
114.255000
0
LINE
8
Layer 1
10
79.849900
20
99.550800
11
79.849900
21
103.505000
0
LINE
8
Layer 1
10
75.898600
20
103.505000
11
75.898600
21
99.550800
0
LINE
8
Layer 1
10
75.898600
20
114.255000
11
75.898600
21
110.301000
0
LINE
8
Layer 1
10
79.849900
20
103.505000
11
75.898600
21
103.505000
0
LINE
8
Layer 1
10
75.898600
20
99.550800
11
79.849900
21
99.550800
0
LINE
8
Layer 1
10
101.355000
20
115.598000
11
97.404000
21
115.598000
0
LINE
8
Layer 1
10
97.404000
20
115.598000
11
97.404000
21
111.645000
0
LINE
8
Layer 1
10
97.404000
20
100.895000
11
101.355000
21
100.895000
0
LINE
8
Layer 1
10
101.355000
20
100.895000
11
101.355000
21
104.848000
0
LINE
8
Layer 1
10
97.404000
20
104.848000
11
97.404000
21
100.895000
0
LINE
8
Layer 1
10
101.355000
20
104.848000
11
97.404000
21
104.848000
0
LINE
8
Layer 1
10
96.269200
20
100.392000
11
86.340910
21
99.886625
0
LINE
8
Layer 1
10
86.340900
20
99.887000
11
78.991820
21
97.937180
0
LINE
8
Layer 1
10
78.991800
20
97.937200
11
74.769590
21
98.422503
0
LINE
8
Layer 1
10
74.769600
20
98.422500
11
74.769600
21
115.384000
0
LINE
8
Layer 1
10
74.769600
20
115.384000
11
85.522300
21
118.070730
0
LINE
8
Layer 1
10
85.522300
20
118.070000
11
91.731600
21
118.070000
0
LINE
8
Layer 1
10
91.731600
20
118.070000
11
102.484300
21
117.240612
0
LINE
8
Layer 1
10
102.484000
20
98.676200
11
102.484000
21
117.241000
0
LINE
8
Layer 1
10
102.484000
20
98.676200
11
96.268960
21
100.392320
0
LINE
8
Layer 1
10
112.461000
20
98.789500
11
105.639510
21
100.669060
0
LINE
8
Layer 1
10
112.461000
20
118.720000
11
112.461000
21
98.789500
0
LINE
8
Layer 1
10
105.639000
20
100.669000
11
105.639000
21
119.248000
0
LINE
8
Layer 1
10
105.639000
20
119.248000
11
112.460490
21
118.720403
0
LINE
8
Layer 1
10
103.000000
20
90.037600
11
106.423650
21
88.061980
0
LINE
8
Layer 1
10
95.225500
20
92.608200
11
95.225500
21
96.562300
0
LINE
8
Layer 1
10
91.274200
20
96.562300
11
91.274200
21
92.608200
0
LINE
8
Layer 1
10
95.225500
20
96.562300
11
91.274200
21
96.562300
0
LINE
8
Layer 1
10
91.274200
20
92.608200
11
95.225500
21
92.608200
0
LINE
8
Layer 1
10
101.095000
20
91.025400
11
102.120090
21
94.841160
0
LINE
8
Layer 1
10
98.301400
20
95.865500
11
97.279900
21
92.049740
0
LINE
8
Layer 1
10
102.120000
20
94.841100
11
98.301370
21
95.865470
0
LINE
8
Layer 1
10
97.279900
20
92.049700
11
101.094940
21
91.025330
0
LINE
8
Layer 1
10
106.838000
20
86.517900
11
109.940000
21
91.894200
0
LINE
8
Layer 1
10
90.145200
20
91.482700
11
106.838300
21
86.517840
0
LINE
8
Layer 1
10
90.145200
20
93.818900
11
90.145200
21
91.482700
0
LINE
8
Layer 1
10
109.940000
20
91.894200
11
109.940000
21
93.818900
0
LINE
8
Layer 1
10
109.940000
20
93.818900
11
98.922100
21
96.864050
0
LINE
8
Layer 1
10
98.922200
20
96.864100
11
96.850520
21
97.420371
0
LINE
8
Layer 1
10
96.850600
20
97.420300
11
86.944530
21
96.926395
0
LINE
8
Layer 1
10
86.944500
20
96.926400
11
81.562440
21
95.512780
0
LINE
8
Layer 1
10
81.562400
20
95.512800
11
79.728000
21
95.013160
0
LINE
8
Layer 1
10
79.728000
20
95.013200
11
90.145200
21
93.818940
0
LINE
8
Layer 1
10
108.399000
20
91.482700
11
104.978940
21
93.457600
0
LINE
8
Layer 1
10
106.424000
20
88.061900
11
108.398900
21
91.482680
0
LINE
8
Layer 1
10
104.979000
20
93.457600
11
103.000510
21
90.037540
0
LINE
8
Layer 1
10
65.210500
20
95.315000
11
65.210500
21
99.960100
0
LINE
8
Layer 1
10
65.210500
20
99.960100
11
69.844900
21
99.960100
0
LINE
8
Layer 1
10
69.844900
20
99.960100
11
69.844900
21
95.315000
0
LINE
8
Layer 1
10
70.886500
20
93.034700
11
64.065730
21
94.914260
0
LINE
8
Layer 1
10
70.886500
20
112.965000
11
70.886500
21
93.034700
0
LINE
8
Layer 1
10
64.065700
20
94.914200
11
64.065700
21
113.493000
0
LINE
8
Layer 1
10
64.065700
20
113.493000
11
70.886470
21
112.965403
0
LINE
8
Layer 1
10
69.844900
20
95.315000
11
65.210500
21
95.315000
0
LINE
8
Layer 1
10
12392.100000
20
-7853.960000
11
12392.100000
21
771.313000
0
LINE
8
Layer 1
10
11170.900000
20
-9970.620000
11
12392.070000
21
-7853.950000
0
LINE
8
Layer 1
10
4598.810000
20
-8016.230000
11
11170.910000
21
-9970.620000
0
LINE
8
Layer 1
10
4598.810000
20
-7096.190000
11
4598.810000
21
-8016.230000
0
LINE
8
Layer 1
10
-1222.020000
20
-6428.450000
11
4598.810000
21
-7096.187000
0
LINE
8
Layer 1
10
-1222.020000
20
248.920000
11
-1222.020000
21
-6428.450000
0
LINE
8
Layer 1
10
894.362000
20
777.804000
11
-1222.020000
21
248.920000
0
LINE
8
Layer 1
10
3011.030000
20
1306.690000
11
894.362000
21
777.804000
0
LINE
8
Layer 1
10
5455.350000
20
1306.690000
11
3011.030000
21
1306.690000
0
LINE
8
Layer 1
10
12392.100000
20
771.313000
11
5455.350000
21
1306.690000
0
LINE
8
Layer 1
10
81.275000
20
111.645000
11
85.226200
21
111.645000
0
LINE
8
Layer 1
10
85.226200
20
111.645000
11
85.226200
21
115.598000
0
LINE
8
Layer 1
10
81.275000
20
106.271000
11
85.226200
21
106.271000
0
LINE
8
Layer 1
10
85.226200
20
106.271000
11
85.226200
21
110.225000
0
LINE
8
Layer 1
10
85.226200
20
110.225000
11
81.275000
21
110.225000
0
LINE
8
Layer 1
10
81.275000
20
110.225000
11
81.275000
21
106.271000
0
LINE
8
Layer 1
10
85.226200
20
115.598000
11
81.275000
21
115.598000
0
LINE
8
Layer 1
10
81.275000
20
115.598000
11
81.275000
21
111.645000
0
LINE
8
Layer 1
10
85.226200
20
104.848000
11
81.275000
21
104.848000
0
LINE
8
Layer 1
10
81.275000
20
100.895000
11
85.226200
21
100.895000
0
LINE
8
Layer 1
10
85.226200
20
100.895000
11
85.226200
21
104.848000
0
LINE
8
Layer 1
10
81.275000
20
104.848000
11
81.275000
21
100.895000
0
LINE
8
Layer 1
10
92.027600
20
111.645000
11
95.978900
21
111.645000
0
LINE
8
Layer 1
10
95.978900
20
111.645000
11
95.978900
21
115.598000
0
LINE
8
Layer 1
10
92.027600
20
106.271000
11
95.978900
21
106.271000
0
LINE
8
Layer 1
10
95.978900
20
106.271000
11
95.978900
21
110.225000
0
LINE
8
Layer 1
10
95.978900
20
110.225000
11
92.027600
21
110.225000
0
LINE
8
Layer 1
10
92.027600
20
110.225000
11
92.027600
21
106.271000
0
LINE
8
Layer 1
10
95.978900
20
115.598000
11
92.027600
21
115.598000
0
LINE
8
Layer 1
10
92.027600
20
115.598000
11
92.027600
21
111.645000
0
LINE
8
Layer 1
10
92.027600
20
100.895000
11
95.978900
21
100.895000
0
LINE
8
Layer 1
10
95.978900
20
100.895000
11
95.978900
21
104.848000
0
LINE
8
Layer 1
10
92.027600
20
104.848000
11
92.027600
21
100.895000
0
LINE
8
Layer 1
10
95.978900
20
104.848000
11
92.027600
21
104.848000
0
LINE
8
Layer 1
10
97.404000
20
111.645000
11
101.355000
21
111.645000
0
LINE
8
Layer 1
10
86.651300
20
112.988000
11
90.602500
21
112.988000
0
LINE
8
Layer 1
10
90.602500
20
112.988000
11
90.602500
21
116.941000
0
LINE
8
Layer 1
10
86.651300
20
107.615000
11
90.602500
21
107.615000
0
LINE
8
Layer 1
10
90.602500
20
107.615000
11
90.602500
21
111.568000
0
LINE
8
Layer 1
10
90.602500
20
111.568000
11
86.651300
21
111.568000
0
LINE
8
Layer 1
10
86.651300
20
111.568000
11
86.651300
21
107.615000
0
LINE
8
Layer 1
10
90.602500
20
116.941000
11
86.651300
21
116.941000
0
LINE
8
Layer 1
10
86.651300
20
116.941000
11
86.651300
21
112.988000
0
LINE
8
Layer 1
10
90.602500
20
106.192000
11
86.651300
21
106.192000
0
LINE
8
Layer 1
10
86.651300
20
102.238000
11
90.602500
21
102.238000
0
LINE
8
Layer 1
10
90.602500
20
102.238000
11
90.602500
21
106.192000
0
LINE
8
Layer 1
10
86.651300
20
106.192000
11
86.651300
21
102.238000
0
LINE
8
Layer 1
10
101.355000
20
111.645000
11
101.355000
21
115.598000
0
LINE
8
Layer 1
10
97.404000
20
106.271000
11
101.355000
21
106.271000
0
LINE
8
Layer 1
10
101.355000
20
106.271000
11
101.355000
21
110.225000
0
LINE
8
Layer 1
10
101.355000
20
110.225000
11
97.404000
21
110.225000
0
LINE
8
Layer 1
10
97.404000
20
110.225000
11
97.404000
21
106.271000
0
LINE
8
Layer 1
10
75.898600
20
110.301000
11
79.849900
21
110.301000
0
LINE
8
Layer 1
10
79.849900
20
110.301000
11
79.849900
21
114.255000
0
LINE
8
Layer 1
10
75.898600
20
104.927000
11
79.849900
21
104.927000
0
LINE
8
Layer 1
10
79.849900
20
104.927000
11
79.849900
21
108.881000
0
LINE
8
Layer 1
10
79.849900
20
108.881000
11
75.898600
21
108.881000
0
LINE
8
Layer 1
10
75.898600
20
108.881000
11
75.898600
21
104.927000
0
LINE
8
Layer 1
10
79.849900
20
114.255000
11
75.898600
21
114.255000
0
LINE
8
Layer 1
10
79.849900
20
99.550800
11
79.849900
21
103.505000
0
LINE
8
Layer 1
10
75.898600
20
103.505000
11
75.898600
21
99.550800
0
LINE
8
Layer 1
10
75.898600
20
114.255000
11
75.898600
21
110.301000
0
LINE
8
Layer 1
10
79.849900
20
103.505000
11
75.898600
21
103.505000
0
LINE
8
Layer 1
10
75.898600
20
99.550800
11
79.849900
21
99.550800
0
LINE
8
Layer 1
10
101.355000
20
115.598000
11
97.404000
21
115.598000
0
LINE
8
Layer 1
10
97.404000
20
115.598000
11
97.404000
21
111.645000
0
LINE
8
Layer 1
10
97.404000
20
100.895000
11
101.355000
21
100.895000
0
LINE
8
Layer 1
10
101.355000
20
100.895000
11
101.355000
21
104.848000
0
LINE
8
Layer 1
10
97.404000
20
104.848000
11
97.404000
21
100.895000
0
LINE
8
Layer 1
10
101.355000
20
104.848000
11
97.404000
21
104.848000
0
LINE
8
Layer 1
10
96.269200
20
100.392000
11
86.340910
21
99.886625
0
LINE
8
Layer 1
10
86.340900
20
99.887000
11
78.991820
21
97.937180
0
LINE
8
Layer 1
10
78.991800
20
97.937200
11
74.769590
21
98.422503
0
LINE
8
Layer 1
10
74.769600
20
98.422500
11
74.769600
21
115.384000
0
LINE
8
Layer 1
10
74.769600
20
115.384000
11
85.522300
21
118.070730
0
LINE
8
Layer 1
10
85.522300
20
118.070000
11
91.731600
21
118.070000
0
LINE
8
Layer 1
10
91.731600
20
118.070000
11
102.484300
21
117.240612
0
LINE
8
Layer 1
10
102.484000
20
98.676200
11
102.484000
21
117.241000
0
LINE
8
Layer 1
10
102.484000
20
98.676200
11
96.268960
21
100.392320
0
LINE
8
Layer 1
10
112.461000
20
98.789500
11
105.639510
21
100.669060
0
LINE
8
Layer 1
10
112.461000
20
118.720000
11
112.461000
21
98.789500
0
LINE
8
Layer 1
10
105.639000
20
100.669000
11
105.639000
21
119.248000
0
LINE
8
Layer 1
10
105.639000
20
119.248000
11
112.460490
21
118.720403
0
LINE
8
Layer 1
10
103.000000
20
90.037600
11
106.423650
21
88.061980
0
LINE
8
Layer 1
10
95.225500
20
92.608200
11
95.225500
21
96.562300
0
LINE
8
Layer 1
10
91.274200
20
96.562300
11
91.274200
21
92.608200
0
LINE
8
Layer 1
10
95.225500
20
96.562300
11
91.274200
21
96.562300
0
LINE
8
Layer 1
10
91.274200
20
92.608200
11
95.225500
21
92.608200
0
LINE
8
Layer 1
10
101.095000
20
91.025400
11
102.120090
21
94.841160
0
LINE
8
Layer 1
10
98.301400
20
95.865500
11
97.279900
21
92.049740
0
LINE
8
Layer 1
10
102.120000
20
94.841100
11
98.301370
21
95.865470
0
LINE
8
Layer 1
10
97.279900
20
92.049700
11
101.094940
21
91.025330
0
LINE
8
Layer 1
10
106.838000
20
86.517900
11
109.940000
21
91.894200
0
LINE
8
Layer 1
10
90.145200
20
91.482700
11
106.838300
21
86.517840
0
LINE
8
Layer 1
10
90.145200
20
93.818900
11
90.145200
21
91.482700
0
LINE
8
Layer 1
10
109.940000
20
91.894200
11
109.940000
21
93.818900
0
LINE
8
Layer 1
10
109.940000
20
93.818900
11
98.922100
21
96.864050
0
LINE
8
Layer 1
10
98.922200
20
96.864100
11
96.850520
21
97.420371
0
LINE
8
Layer 1
10
96.850600
20
97.420300
11
86.944530
21
96.926395
0
LINE
8
Layer 1
10
86.944500
20
96.926400
11
81.562440
21
95.512780
0
LINE
8
Layer 1
10
81.562400
20
95.512800
11
79.728000
21
95.013160
0
LINE
8
Layer 1
10
79.728000
20
95.013200
11
90.145200
21
93.818940
0
LINE
8
Layer 1
10
108.399000
20
91.482700
11
104.978940
21
93.457600
0
LINE
8
Layer 1
10
106.424000
20
88.061900
11
108.398900
21
91.482680
0
LINE
8
Layer 1
10
104.979000
20
93.457600
11
103.000510
21
90.037540
0
LINE
8
Layer 1
10
65.210500
20
95.315000
11
65.210500
21
99.960100
0
LINE
8
Layer 1
10
65.210500
20
99.960100
11
69.844900
21
99.960100
0
LINE
8
Layer 1
10
69.844900
20
99.960100
11
69.844900
21
95.315000
0
LINE
8
Layer 1
10
70.886500
20
93.034700
11
64.065730
21
94.914260
0
LINE
8
Layer 1
10
70.886500
20
112.965000
11
70.886500
21
93.034700
0
LINE
8
Layer 1
10
64.065700
20
94.914200
11
64.065700
21
113.493000
0
LINE
8
Layer 1
10
64.065700
20
113.493000
11
70.886470
21
112.965403
0
LINE
8
Layer 1
10
69.844900
20
95.315000
11
65.210500
21
95.315000
 0 
ENDSEC
 0 
EOF